<?xml version="1.0" encoding="iso-8859-1"?>
<!-- Generator: Adobe Illustrator 17.0.0, SVG Export Plug-In . SVG Version: 6.00 Build 0)  -->
<!DOCTYPE svg PUBLIC "-//W3C//DTD SVG 1.1//EN" "http://www.w3.org/Graphics/SVG/1.1/DTD/svg11.dtd">
<svg version="1.1" id="Bruda_1_" xmlns="http://www.w3.org/2000/svg" xmlns:xlink="http://www.w3.org/1999/xlink" x="0px" y="0px"
	 width="1414px" height="1414px" viewBox="0 0 1414 1414" style="enable-background:new 0 0 1414 1414;" xml:space="preserve">
<g id="Bruda">
	<g>
		<path style="fill-rule:evenodd;clip-rule:evenodd;fill:#FFFFFF;" d="M707.011-0.1L-0.096,707.007l82.096,82.096
			c0.052,319.639,240.053,583.201,549.682,620.392l-142.836-142.836c-148.21-67.8-259.387-202.546-294.845-365.555l194.811,194.811
			l318.198-318.198l318.198,318.198l194.737-194.737c-35.471,162.957-146.588,297.668-294.752,365.462l-142.852,142.852
			c309.609-37.202,549.594-300.747,549.656-620.367l82.119-82.118L707.011-0.1z M388.813,954.495L141.326,707.007L388.813,459.52
			l247.488,247.487L388.813,954.495z M459.524,388.809l247.488-247.487l247.487,247.487L707.011,636.297L459.524,388.809z
			 M1025.209,954.495L777.722,707.007l247.487-247.487l247.487,247.487L1025.209,954.495z"/>
	</g>
</g>
</svg>
